<?xml version="1.0" standalone="no"?>
<!DOCTYPE svg PUBLIC "-//W3C//DTD SVG 20010904//EN"
 "http://www.w3.org/TR/2001/REC-SVG-20010904/DTD/svg10.dtd">
<svg version="1.0" xmlns="http://www.w3.org/2000/svg"
 width="4000.000000pt" height="4000.000000pt" viewBox="0 0 4000.000000 4000.000000"
 preserveAspectRatio="xMidYMid meet">
<metadata>
Created by potrace 1.13, written by Peter Selinger 2001-2015
</metadata>
<g transform="translate(0.000000,4000.000000) scale(0.100000,-0.100000)"
fill="#000000" stroke="none">
<path d="M30844 31041 c-7 -8 -63 -14 -146 -17 -42 -1 -86 -8 -98 -14 -11 -6
-46 -10 -78 -9 -32 1 -68 -3 -80 -10 -13 -7 -42 -11 -65 -10 -23 1 -62 -4 -86
-10 -24 -7 -60 -11 -80 -10 -20 1 -55 -3 -79 -10 -24 -7 -75 -12 -115 -12 -40
0 -88 -2 -107 -6 -19 -4 -109 -8 -200 -10 -91 -3 -181 -7 -200 -10 -19 -4 -83
-8 -142 -9 -59 -2 -116 -8 -128 -14 -11 -6 -46 -10 -78 -9 -32 1 -68 -3 -80
-10 -12 -6 -39 -11 -60 -10 -20 2 -47 -3 -60 -10 -13 -7 -38 -11 -56 -10 -17
2 -46 -3 -64 -10 -18 -8 -35 -11 -39 -8 -3 4 -19 -1 -35 -9 -16 -8 -35 -13
-41 -11 -7 2 -25 -2 -40 -10 -16 -8 -35 -12 -42 -9 -8 3 -19 -2 -25 -9 -7 -8
-22 -14 -34 -14 -22 1 -207 -61 -216 -72 -3 -3 -26 -12 -52 -20 -27 -7 -48
-17 -48 -21 0 -4 -7 -8 -15 -8 -19 0 -291 -136 -300 -150 -3 -5 -15 -10 -25
-10 -10 0 -20 -3 -22 -7 -5 -13 -66 -53 -80 -53 -7 0 -19 -9 -26 -20 -7 -11
-20 -20 -30 -20 -9 0 -23 -9 -30 -20 -7 -11 -20 -20 -30 -20 -9 0 -23 -9 -30
-20 -7 -11 -19 -20 -28 -20 -8 0 -27 -13 -41 -30 -13 -16 -31 -30 -39 -30 -8
0 -30 -18 -50 -40 -20 -22 -42 -40 -48 -40 -16 0 -406 -390 -406 -406 0 -6
-18 -28 -40 -48 -22 -20 -40 -41 -40 -47 0 -10 -19 -35 -100 -126 -11 -12 -20
-29 -20 -36 0 -8 -7 -20 -16 -28 -8 -7 -32 -38 -52 -68 -20 -31 -44 -63 -54
-72 -10 -9 -18 -22 -18 -28 0 -13 -40 -74 -52 -79 -5 -2 -8 -12 -8 -22 0 -9
-6 -23 -13 -29 -8 -6 -22 -29 -32 -51 -10 -22 -22 -40 -27 -40 -4 0 -8 -8 -9
-17 0 -10 -9 -31 -19 -48 -11 -16 -34 -57 -51 -90 -17 -33 -35 -61 -40 -63 -5
-2 -9 -12 -9 -23 0 -10 -4 -19 -10 -19 -5 0 -10 -7 -10 -15 0 -14 -8 -32 -109
-247 -28 -59 -51 -111 -51 -116 0 -5 -9 -27 -20 -50 -11 -22 -20 -48 -20 -57
0 -8 -4 -15 -8 -15 -4 0 -14 -21 -22 -47 -7 -27 -20 -54 -27 -61 -7 -8 -10
-18 -7 -23 3 -6 -3 -29 -13 -52 -11 -23 -26 -62 -33 -87 -8 -25 -20 -51 -26
-57 -7 -7 -10 -21 -7 -31 2 -10 -2 -24 -11 -31 -8 -7 -12 -19 -9 -26 3 -8 -2
-21 -10 -30 -8 -8 -13 -23 -10 -33 2 -10 -2 -24 -11 -31 -8 -7 -13 -18 -10
-24 2 -7 -10 -50 -27 -97 -17 -47 -30 -95 -30 -106 0 -12 -6 -27 -14 -34 -7
-6 -12 -17 -9 -25 3 -7 -1 -26 -9 -42 -7 -15 -12 -35 -10 -44 2 -9 -3 -21 -11
-28 -8 -7 -13 -18 -10 -26 3 -7 -1 -26 -9 -42 -8 -15 -12 -33 -10 -40 2 -6 -2
-24 -10 -40 -8 -15 -12 -33 -10 -40 2 -6 -2 -24 -10 -40 -8 -15 -12 -33 -10
-40 2 -6 -3 -25 -11 -41 -8 -16 -13 -32 -9 -35 3 -4 0 -21 -8 -39 -7 -18 -12
-43 -11 -55 2 -12 -4 -35 -12 -51 -8 -16 -13 -32 -9 -35 3 -4 0 -21 -8 -39 -7
-18 -12 -43 -11 -55 2 -12 -4 -35 -12 -51 -8 -16 -13 -32 -10 -35 3 -3 0 -25
-7 -48 -7 -24 -11 -54 -10 -66 1 -12 -3 -32 -10 -45 -7 -13 -12 -35 -11 -51 1
-15 -4 -40 -11 -55 -7 -15 -12 -35 -10 -44 2 -9 -1 -36 -8 -60 -7 -24 -11 -53
-10 -65 1 -12 -3 -32 -10 -45 -7 -13 -12 -38 -10 -56 1 -18 -4 -51 -10 -75 -7
-23 -11 -56 -10 -74 1 -17 -3 -42 -10 -55 -7 -13 -12 -38 -10 -56 1 -18 -4
-51 -10 -75 -7 -23 -11 -54 -10 -69 1 -14 -3 -46 -10 -70 -6 -23 -11 -62 -10
-85 1 -23 -3 -52 -10 -65 -7 -12 -11 -48 -10 -80 1 -32 -3 -68 -10 -80 -7 -13
-11 -42 -10 -65 1 -24 -3 -62 -10 -85 -7 -24 -11 -62 -10 -85 1 -23 -3 -52
-10 -65 -7 -13 -11 -44 -10 -70 1 -26 -4 -58 -10 -70 -7 -13 -12 -40 -10 -60
1 -21 -4 -48 -10 -60 -7 -13 -12 -40 -10 -61 1 -22 -4 -46 -11 -54 -6 -8 -11
-32 -9 -52 1 -23 -3 -42 -12 -49 -8 -7 -12 -22 -9 -37 2 -14 -2 -32 -9 -41 -7
-9 -12 -29 -11 -45 3 -21 -1 -29 -12 -29 -10 0 -13 -6 -9 -15 3 -9 -2 -24 -11
-34 -9 -10 -13 -20 -10 -24 8 -7 -18 -67 -28 -67 -5 0 -8 -9 -8 -20 0 -11 -4
-20 -10 -20 -5 0 -10 -7 -10 -15 0 -21 -20 -55 -52 -88 -16 -15 -28 -32 -28
-37 0 -14 -66 -80 -80 -80 -5 0 -22 -13 -37 -28 -32 -31 -200 -119 -210 -108
-3 3 -14 -1 -24 -10 -10 -9 -25 -14 -33 -11 -8 3 -20 -1 -27 -9 -7 -9 -21 -13
-30 -11 -10 3 -24 -2 -30 -10 -7 -8 -25 -13 -39 -11 -15 1 -35 -3 -43 -11 -9
-7 -35 -11 -61 -10 -25 2 -51 -3 -59 -10 -9 -7 -36 -11 -64 -10 -26 1 -58 -3
-71 -10 -12 -6 -39 -11 -60 -10 -20 2 -47 -3 -60 -10 -13 -7 -47 -11 -77 -10
-31 2 -60 -3 -68 -10 -10 -8 -46 -11 -104 -10 -53 1 -99 -3 -112 -10 -13 -7
-61 -12 -119 -11 -53 1 -113 -4 -132 -10 -19 -6 -78 -10 -131 -9 -57 1 -105
-3 -118 -10 -13 -7 -61 -12 -119 -11 -53 1 -113 -4 -132 -10 -19 -6 -78 -10
-131 -9 -57 1 -105 -3 -118 -10 -13 -7 -63 -11 -130 -10 -66 1 -116 -3 -130
-10 -13 -7 -61 -11 -120 -10 -59 1 -107 -3 -120 -10 -13 -7 -61 -11 -120 -10
-59 1 -107 -3 -120 -10 -13 -7 -61 -12 -119 -11 -53 1 -113 -4 -132 -10 -19
-6 -73 -10 -120 -10 -47 1 -101 -4 -120 -10 -19 -6 -73 -10 -120 -10 -47 1
-101 -4 -120 -10 -19 -6 -78 -10 -131 -9 -57 1 -105 -3 -118 -10 -12 -7 -59
-12 -109 -11 -48 1 -103 -4 -122 -10 -19 -6 -74 -10 -121 -9 -49 1 -95 -3
-108 -10 -13 -7 -60 -11 -120 -10 -59 1 -107 -3 -120 -10 -13 -7 -61 -11 -120
-10 -59 1 -107 -3 -120 -10 -13 -7 -61 -11 -120 -10 -59 1 -107 -3 -120 -10
-13 -7 -61 -11 -120 -10 -59 1 -107 -3 -120 -10 -13 -7 -61 -11 -120 -10 -59
1 -107 -3 -120 -10 -12 -7 -59 -12 -109 -11 -48 1 -103 -4 -122 -10 -19 -6
-73 -10 -120 -10 -47 1 -101 -4 -120 -10 -19 -6 -74 -10 -121 -9 -49 1 -95 -3
-107 -10 -14 -7 -64 -11 -131 -10 -66 1 -116 -3 -130 -10 -13 -7 -64 -11 -130
-10 -66 1 -117 -3 -130 -10 -13 -8 -69 -11 -150 -10 -80 0 -137 -3 -150 -10
-21 -12 -114 -14 -623 -12 -110 0 -176 4 -190 12 -12 7 -49 11 -81 10 -36 -1
-65 3 -74 11 -8 7 -31 11 -50 9 -19 -1 -41 3 -50 10 -8 8 -28 12 -44 11 -20
-3 -29 1 -29 11 0 10 -7 13 -18 10 -10 -2 -24 2 -31 11 -7 8 -19 12 -27 9 -8
-3 -23 4 -33 16 -10 11 -24 21 -30 21 -6 0 -21 6 -33 13 -28 15 -148 133 -148
145 0 4 -8 17 -18 28 -25 27 -106 193 -98 201 3 3 -1 14 -10 24 -9 10 -14 25
-11 33 3 8 -1 20 -9 27 -8 7 -14 25 -12 39 1 15 -4 35 -11 44 -7 9 -11 27 -9
41 3 14 -1 30 -9 36 -8 8 -13 28 -12 53 1 23 -3 51 -9 63 -7 12 -11 35 -10 50
1 15 -4 38 -11 51 -6 12 -11 39 -10 60 2 20 -3 47 -10 60 -6 12 -11 44 -10 70
1 26 -3 57 -10 70 -6 12 -11 44 -10 70 1 26 -3 57 -10 70 -6 12 -11 44 -10 70
1 26 -3 57 -10 70 -7 13 -11 42 -10 65 1 23 -3 61 -10 84 -6 24 -11 57 -10 75
2 18 -3 43 -10 56 -6 12 -11 44 -10 70 1 26 -3 57 -10 70 -6 12 -11 44 -10 70
1 26 -3 57 -10 70 -6 12 -11 39 -10 60 2 20 -3 47 -10 60 -7 13 -11 38 -10 55
1 18 -3 51 -10 75 -7 24 -10 51 -8 60 2 9 -3 29 -10 45 -8 15 -13 44 -12 65 2
20 -3 47 -10 60 -6 12 -11 39 -10 60 2 20 -3 47 -9 59 -7 12 -11 35 -10 50 1
15 -4 38 -10 50 -7 12 -11 35 -10 50 1 15 -4 38 -10 50 -7 12 -11 35 -10 50 1
15 -4 38 -10 50 -7 12 -11 35 -10 50 1 15 -4 38 -11 51 -7 13 -11 33 -9 45 1
12 -4 37 -11 55 -8 18 -11 35 -8 39 4 3 -1 19 -9 35 -8 16 -14 39 -12 51 1 12
-4 37 -11 55 -8 18 -11 35 -8 39 4 3 -1 19 -9 35 -8 16 -13 35 -11 41 2 7 -2
25 -10 40 -8 16 -12 34 -10 40 2 7 -2 25 -10 40 -8 16 -12 34 -10 40 2 7 -2
25 -10 40 -8 16 -12 34 -10 40 2 7 -2 25 -10 40 -8 16 -12 35 -9 42 3 8 -2 19
-10 26 -8 7 -13 19 -11 28 2 9 -3 29 -10 44 -8 16 -12 35 -9 43 3 7 -1 20 -9
27 -8 8 -14 23 -13 33 0 11 -9 44 -21 74 -12 30 -19 60 -17 67 3 7 -2 19 -10
28 -9 9 -13 22 -10 30 3 8 -1 21 -9 28 -8 8 -14 23 -14 33 1 25 -63 207 -75
215 -5 4 -6 14 -3 23 3 8 1 21 -6 28 -7 7 -23 47 -37 88 -13 41 -27 77 -31 80
-3 3 -12 26 -20 53 -7 26 -17 47 -21 47 -4 0 -8 7 -8 15 0 8 -9 34 -19 58 -11
23 -25 60 -33 82 -7 22 -15 42 -18 45 -5 5 -27 50 -69 143 -11 26 -21 54 -21
62 0 8 -4 15 -10 15 -5 0 -10 9 -10 20 0 11 -4 20 -10 20 -5 0 -10 9 -10 20 0
11 -4 20 -10 20 -5 0 -10 9 -10 20 0 11 -4 20 -10 20 -5 0 -10 9 -10 20 0 11
-4 20 -10 20 -5 0 -10 9 -10 20 0 11 -3 20 -7 20 -13 0 -93 143 -93 166 0 7
-3 14 -7 16 -13 5 -53 66 -53 80 0 7 -9 19 -20 26 -11 7 -20 17 -20 23 0 6
-22 45 -50 86 -27 41 -50 79 -50 84 0 5 -13 22 -30 37 -16 16 -30 35 -30 43 0
8 -9 20 -20 27 -11 7 -20 19 -20 28 0 8 -14 27 -30 41 -17 13 -30 31 -30 39 0
8 -18 30 -40 50 -22 20 -40 42 -40 49 0 7 -40 52 -90 101 -49 48 -90 93 -90
99 0 15 -150 165 -165 165 -7 0 -38 27 -69 60 -32 33 -63 60 -71 60 -7 0 -29
18 -49 40 -20 22 -42 40 -50 40 -8 0 -26 14 -39 30 -14 17 -32 30 -40 30 -8 0
-20 7 -28 16 -7 8 -38 32 -68 52 -31 20 -57 40 -59 44 -2 5 -12 8 -23 8 -10 0
-24 9 -31 20 -7 11 -19 20 -26 20 -14 0 -75 40 -80 53 -2 4 -9 7 -16 7 -7 0
-46 18 -87 40 -98 52 -186 96 -226 112 -18 7 -33 15 -33 19 0 3 -23 12 -50 19
-28 7 -50 16 -50 20 0 3 -21 12 -48 20 -26 7 -53 19 -60 26 -7 7 -19 11 -27 8
-8 -3 -21 1 -30 10 -9 8 -22 13 -30 10 -8 -3 -21 1 -30 10 -9 8 -22 13 -30 10
-8 -3 -21 1 -30 10 -9 8 -22 13 -29 10 -8 -3 -27 1 -43 9 -15 7 -35 12 -44 10
-9 -2 -21 3 -28 11 -7 8 -18 13 -26 10 -7 -3 -26 1 -42 9 -15 8 -33 12 -40 10
-6 -2 -25 3 -41 11 -16 8 -32 13 -35 9 -4 -3 -21 0 -39 8 -18 7 -43 12 -55 11
-12 -2 -32 2 -45 9 -13 7 -40 12 -60 10 -21 -1 -48 4 -60 10 -13 7 -40 12 -60
10 -21 -1 -48 4 -60 10 -12 7 -53 11 -90 10 -37 -1 -77 3 -88 9 -11 6 -78 12
-148 14 -70 1 -147 5 -172 8 -58 8 -212 8 -270 1 -25 -4 -93 -7 -152 -9 -59
-1 -116 -8 -128 -14 -11 -6 -46 -10 -78 -9 -32 1 -67 -3 -79 -10 -12 -6 -35
-10 -50 -9 -15 1 -38 -4 -50 -10 -12 -7 -35 -11 -50 -10 -15 1 -38 -4 -51 -11
-13 -7 -33 -11 -46 -9 -13 1 -30 -3 -39 -11 -9 -7 -22 -11 -29 -8 -7 2 -25 -2
-39 -9 -14 -7 -35 -13 -45 -13 -25 1 -327 -103 -335 -115 -4 -5 -14 -6 -23 -3
-8 3 -22 -1 -31 -9 -9 -9 -22 -13 -30 -10 -8 3 -20 0 -27 -7 -18 -16 -146 -59
-157 -52 -5 3 -17 -2 -25 -11 -9 -9 -23 -14 -31 -11 -7 3 -19 -1 -26 -9 -7 -8
-19 -13 -28 -11 -9 2 -29 -3 -44 -10 -16 -8 -35 -12 -42 -9 -8 3 -19 -2 -26
-10 -7 -8 -25 -14 -39 -12 -15 1 -34 -3 -43 -10 -8 -7 -28 -12 -43 -10 -16 1
-39 -4 -51 -10 -12 -7 -35 -11 -50 -10 -15 1 -38 -4 -51 -11 -13 -7 -38 -11
-57 -10 -18 2 -40 -3 -48 -10 -9 -7 -31 -11 -50 -10 -19 2 -42 -3 -50 -10 -9
-7 -31 -11 -50 -10 -19 2 -42 -3 -50 -10 -9 -7 -31 -11 -50 -10 -19 2 -42 -3
-50 -10 -9 -7 -26 -11 -39 -10 -13 2 -38 -3 -55 -10 -18 -7 -42 -11 -53 -8
-10 3 -25 -2 -31 -10 -7 -8 -25 -13 -39 -11 -15 1 -35 -3 -43 -11 -9 -7 -22
-11 -29 -8 -7 2 -26 -2 -41 -10 -16 -8 -35 -12 -42 -9 -8 3 -19 -2 -26 -10 -7
-9 -21 -13 -30 -11 -10 3 -24 -2 -30 -10 -7 -8 -21 -12 -30 -10 -10 3 -24 -2
-30 -10 -7 -8 -21 -12 -30 -10 -10 3 -23 -1 -30 -9 -6 -8 -19 -14 -28 -14 -9
0 -42 -13 -73 -29 -32 -16 -78 -35 -103 -42 -25 -7 -45 -17 -45 -21 0 -4 -9
-8 -20 -8 -11 0 -20 -4 -20 -8 0 -5 -18 -17 -40 -27 -22 -10 -45 -24 -51 -32
-6 -7 -20 -13 -30 -13 -11 0 -19 -4 -19 -10 0 -5 -8 -10 -18 -10 -9 0 -23 -9
-30 -20 -7 -11 -20 -20 -30 -20 -9 0 -23 -9 -30 -20 -7 -11 -19 -20 -28 -20
-8 0 -27 -13 -41 -30 -13 -16 -31 -30 -38 -30 -8 0 -36 -22 -63 -50 -27 -27
-54 -50 -60 -50 -14 0 -282 -270 -282 -285 0 -7 -22 -33 -50 -59 -27 -26 -50
-52 -50 -58 0 -6 -18 -29 -40 -50 -22 -22 -40 -45 -40 -52 0 -6 -9 -18 -20
-26 -11 -8 -20 -22 -20 -32 0 -10 -9 -23 -20 -30 -11 -7 -20 -21 -20 -30 0
-10 -9 -23 -20 -30 -11 -7 -20 -21 -20 -30 0 -10 -9 -23 -20 -30 -11 -7 -20
-19 -20 -26 0 -14 -40 -75 -52 -80 -5 -2 -8 -9 -8 -16 0 -21 -31 -77 -46 -83
-8 -3 -14 -14 -14 -24 0 -10 -4 -19 -10 -19 -5 0 -10 -6 -10 -13 0 -18 -24
-67 -32 -67 -5 0 -8 -9 -8 -20 0 -11 -4 -20 -10 -20 -5 0 -10 -9 -10 -20 0
-11 -4 -20 -10 -20 -5 0 -10 -9 -10 -20 0 -11 -4 -20 -10 -20 -5 0 -10 -7 -10
-15 0 -14 -18 -53 -30 -65 -3 -3 -11 -23 -18 -45 -17 -51 -53 -126 -70 -143
-6 -8 -9 -18 -6 -24 6 -9 -12 -55 -26 -68 -3 -3 -12 -25 -20 -50 -8 -25 -20
-51 -27 -58 -7 -8 -10 -18 -7 -23 3 -6 -3 -29 -13 -52 -11 -23 -30 -76 -43
-117 -13 -41 -29 -82 -36 -90 -6 -8 -9 -21 -7 -27 3 -7 -2 -20 -11 -28 -8 -9
-13 -22 -10 -30 3 -8 -1 -21 -10 -30 -8 -9 -13 -21 -10 -28 2 -7 -5 -37 -17
-67 -12 -30 -21 -65 -20 -76 0 -12 -6 -27 -14 -34 -7 -6 -12 -17 -9 -25 3 -7
-1 -26 -9 -42 -7 -15 -12 -35 -10 -44 2 -9 -3 -21 -11 -28 -8 -7 -13 -18 -10
-26 3 -7 -1 -26 -9 -42 -8 -15 -12 -33 -10 -40 2 -6 -2 -24 -10 -40 -8 -15
-12 -34 -10 -41 3 -7 -1 -20 -8 -29 -8 -9 -12 -27 -11 -40 2 -13 -2 -31 -9
-40 -8 -8 -12 -28 -11 -43 2 -14 -3 -32 -11 -38 -8 -7 -12 -23 -10 -36 3 -13
-2 -37 -11 -53 -8 -17 -13 -33 -9 -36 3 -4 0 -21 -8 -39 -7 -18 -12 -43 -11
-55 2 -12 -2 -32 -9 -45 -7 -13 -12 -37 -11 -54 2 -17 -4 -36 -12 -43 -8 -6
-12 -21 -9 -31 3 -11 -1 -35 -8 -53 -7 -17 -12 -42 -11 -54 2 -12 -2 -32 -9
-45 -7 -13 -12 -40 -10 -61 1 -22 -4 -46 -11 -54 -7 -8 -11 -30 -9 -48 1 -19
-3 -44 -10 -57 -7 -13 -12 -40 -10 -60 1 -21 -4 -48 -10 -60 -7 -13 -12 -40
-10 -60 1 -21 -4 -48 -10 -60 -7 -13 -12 -40 -10 -60 1 -21 -4 -48 -10 -60 -7
-13 -11 -44 -10 -70 1 -26 -4 -58 -10 -70 -7 -13 -11 -44 -10 -70 1 -26 -4
-58 -10 -70 -7 -13 -11 -44 -10 -70 1 -26 -3 -58 -10 -70 -7 -13 -11 -46 -10
-75 1 -29 -3 -71 -10 -95 -6 -24 -11 -66 -10 -95 1 -28 -3 -62 -10 -74 -7 -13
-11 -54 -10 -96 1 -39 -3 -91 -10 -115 -6 -24 -11 -73 -10 -110 1 -36 -3 -85
-9 -108 -6 -23 -12 -101 -14 -173 -1 -73 -5 -152 -8 -177 -3 -25 -8 -160 -10
-300 -2 -140 -7 -271 -11 -290 -3 -19 -6 -92 -6 -162 0 -80 -5 -136 -12 -150
-7 -12 -11 -53 -10 -91 1 -43 -3 -74 -10 -84 -7 -8 -12 -34 -10 -59 1 -26 -3
-52 -10 -61 -8 -8 -12 -28 -11 -43 2 -14 -3 -32 -11 -39 -8 -6 -13 -20 -10
-30 2 -9 -2 -23 -11 -30 -8 -7 -12 -19 -9 -27 3 -8 -2 -23 -11 -33 -9 -10 -13
-21 -9 -24 8 -9 -56 -137 -79 -158 -10 -9 -18 -24 -18 -33 0 -9 -9 -21 -20
-28 -11 -7 -20 -19 -20 -26 0 -15 -65 -82 -79 -82 -5 0 -27 -18 -49 -40 -21
-22 -45 -40 -52 -40 -7 0 -21 -10 -31 -21 -11 -12 -25 -19 -34 -15 -8 3 -15 0
-15 -7 0 -15 -56 -41 -70 -32 -5 3 -10 -1 -10 -11 0 -11 -6 -15 -20 -11 -14 3
-20 0 -20 -10 0 -10 -6 -14 -20 -10 -10 3 -25 -2 -31 -10 -7 -8 -21 -12 -30
-10 -10 3 -24 -2 -30 -10 -7 -8 -21 -12 -30 -10 -10 3 -24 -2 -30 -10 -7 -8
-21 -12 -30 -10 -10 3 -24 -2 -30 -10 -7 -8 -21 -12 -30 -10 -10 3 -24 -2 -30
-10 -7 -8 -25 -13 -39 -11 -15 1 -35 -3 -43 -11 -9 -7 -27 -11 -40 -9 -13 1
-31 -3 -40 -11 -9 -7 -22 -11 -29 -8 -7 2 -26 -2 -41 -10 -16 -8 -35 -12 -42
-9 -8 3 -19 -2 -26 -10 -7 -8 -26 -13 -46 -12 -20 1 -38 -3 -43 -11 -4 -8 -15
-11 -23 -8 -9 3 -21 -1 -28 -9 -7 -9 -21 -13 -30 -11 -10 3 -24 -2 -30 -10 -7
-8 -21 -12 -31 -10 -10 3 -24 0 -31 -6 -21 -21 -65 -40 -75 -33 -5 3 -15 -1
-22 -9 -7 -8 -21 -15 -30 -15 -10 0 -20 -3 -22 -7 -4 -11 -87 -53 -104 -53 -8
0 -14 -4 -14 -10 0 -5 -8 -10 -18 -10 -9 0 -23 -9 -30 -20 -7 -11 -18 -20 -26
-20 -8 0 -36 -22 -63 -50 -26 -27 -54 -50 -61 -50 -16 0 -62 -45 -62 -61 0 -7
-18 -29 -40 -50 -22 -21 -40 -45 -40 -53 0 -8 -13 -26 -30 -39 -16 -14 -30
-33 -30 -41 0 -9 -4 -16 -10 -16 -5 0 -10 -6 -10 -12 0 -16 -80 -178 -96 -195
-7 -7 -10 -21 -7 -31 2 -10 -2 -24 -10 -31 -8 -6 -13 -20 -10 -30 2 -9 -2 -23
-11 -30 -8 -7 -12 -19 -9 -27 3 -8 -1 -22 -8 -30 -8 -9 -12 -29 -11 -44 2 -14
-3 -32 -11 -38 -8 -7 -12 -23 -9 -37 2 -14 -2 -32 -9 -41 -7 -9 -12 -31 -10
-49 1 -19 -3 -44 -10 -57 -7 -12 -11 -46 -10 -75 1 -29 -3 -71 -9 -94 -6 -22
-11 -96 -11 -164 0 -68 5 -142 11 -164 6 -23 10 -65 9 -94 -1 -29 3 -63 10
-75 7 -13 11 -38 10 -57 -2 -18 3 -40 10 -49 7 -8 11 -21 8 -28 -2 -7 2 -26
10 -41 8 -16 12 -35 9 -42 -3 -8 2 -19 10 -26 9 -7 13 -21 11 -30 -3 -10 2
-24 10 -30 8 -7 12 -21 10 -30 -3 -10 0 -23 7 -28 7 -6 18 -33 26 -61 7 -27
17 -50 22 -50 4 0 8 -9 8 -20 0 -11 5 -20 10 -20 6 0 10 -9 10 -19 0 -11 3
-21 8 -23 11 -5 52 -66 52 -78 0 -6 11 -22 25 -36 14 -14 25 -28 25 -32 0 -4
32 -40 70 -80 39 -40 70 -77 70 -82 0 -6 6 -10 13 -10 6 0 34 -23 60 -50 27
-28 54 -50 59 -50 6 0 27 -14 47 -30 56 -48 60 -50 69 -50 13 0 136 -64 140
-72 2 -5 10 -8 19 -8 8 0 21 -7 29 -15 8 -8 21 -12 29 -9 8 3 21 -1 30 -9 8
-8 23 -13 33 -10 10 2 24 -2 31 -11 7 -8 19 -12 27 -9 8 3 22 -1 31 -8 8 -8
26 -12 39 -11 13 2 33 -2 46 -9 13 -7 35 -12 51 -11 15 1 40 -4 56 -12 16 -9
31 -13 34 -9 4 3 21 0 39 -8 18 -7 47 -12 64 -10 18 1 43 -3 56 -10 13 -7 40
-12 61 -10 22 1 46 -4 54 -11 8 -6 32 -11 52 -9 23 1 42 -3 49 -12 7 -8 22
-12 37 -9 14 2 32 -2 41 -9 9 -7 29 -12 44 -11 14 2 32 -3 39 -11 6 -8 20 -13
30 -10 9 2 23 -2 30 -11 7 -8 19 -12 26 -9 8 3 21 -2 30 -10 8 -8 24 -13 35
-10 14 4 20 0 20 -11 0 -9 6 -13 14 -10 8 3 25 -4 37 -15 13 -12 29 -21 36
-21 7 0 18 -9 25 -20 7 -11 20 -20 28 -20 16 0 160 -142 160 -157 0 -5 8 -18
18 -29 24 -28 42 -61 42 -79 0 -8 5 -15 10 -15 6 0 10 -9 10 -20 0 -11 5 -20
10 -20 6 0 10 -9 10 -19 0 -11 3 -21 8 -23 12 -5 56 -98 49 -105 -4 -3 0 -14
9 -24 9 -10 14 -25 11 -33 -3 -8 1 -20 9 -27 9 -7 13 -21 11 -30 -3 -10 2 -24
10 -30 8 -7 13 -25 11 -39 -1 -15 4 -35 11 -44 7 -9 11 -27 9 -41 -3 -14 1
-30 9 -36 7 -7 13 -26 11 -43 -1 -17 4 -41 11 -54 7 -13 11 -38 10 -57 -2 -18
2 -40 9 -48 8 -9 12 -36 11 -64 -1 -26 3 -58 10 -71 6 -12 11 -44 10 -70 -1
-26 3 -57 10 -70 7 -12 11 -48 10 -80 -1 -32 3 -68 10 -80 7 -12 11 -48 10
-80 -1 -32 3 -68 10 -80 7 -13 11 -53 10 -93 -1 -47 2 -73 10 -78 8 -5 12 -30
11 -67 -1 -32 2 -70 6 -84 4 -14 8 -43 9 -65 2 -22 8 -59 14 -82 6 -24 11 -57
10 -75 -2 -18 3 -43 9 -55 7 -12 11 -35 10 -50 -1 -15 4 -38 11 -51 6 -12 11
-39 10 -60 -2 -20 3 -47 10 -60 7 -13 11 -33 9 -45 -1 -12 4 -37 11 -54 7 -18
11 -42 8 -53 -3 -10 2 -25 10 -31 8 -7 13 -24 11 -38 -1 -15 4 -41 11 -59 7
-17 11 -41 8 -52 -3 -10 2 -25 10 -31 8 -7 13 -25 11 -39 -1 -15 4 -35 11 -44
7 -9 11 -27 9 -41 -3 -14 1 -30 9 -37 8 -6 13 -24 11 -38 -1 -15 3 -35 11 -43
7 -9 11 -22 8 -29 -2 -7 2 -26 10 -41 8 -16 12 -34 10 -40 -2 -7 2 -25 10 -40
8 -16 12 -35 9 -42 -3 -8 2 -19 10 -26 8 -7 14 -19 12 -28 -1 -9 4 -31 11 -49
8 -18 11 -36 7 -39 -3 -4 1 -14 10 -24 9 -10 14 -24 11 -31 -2 -7 2 -26 10
-41 8 -16 12 -35 9 -42 -3 -8 2 -19 10 -26 9 -7 13 -21 11 -30 -3 -10 2 -24
10 -30 8 -7 12 -21 10 -30 -3 -10 2 -24 10 -30 8 -7 12 -21 10 -30 -3 -10 2
-24 10 -30 8 -7 12 -21 10 -30 -3 -10 2 -24 10 -30 8 -7 12 -21 10 -30 -3 -10
2 -24 10 -30 8 -7 12 -21 10 -30 -3 -10 2 -24 9 -30 8 -7 13 -20 12 -29 -2 -9
2 -23 8 -31 6 -8 17 -34 24 -59 7 -25 22 -64 33 -87 10 -23 16 -46 13 -52 -3
-5 0 -15 7 -23 7 -7 20 -34 27 -60 8 -27 18 -48 22 -48 4 0 8 -7 8 -16 0 -8
14 -44 31 -79 17 -35 28 -68 25 -74 -4 -5 -1 -15 6 -23 22 -22 41 -66 34 -76
-3 -6 -1 -17 6 -24 20 -21 38 -56 38 -73 0 -8 3 -15 8 -15 4 0 13 -15 20 -32
7 -18 22 -52 33 -76 10 -23 19 -49 19 -57 0 -8 3 -15 8 -15 8 0 32 -49 32 -67
0 -7 5 -13 10 -13 6 0 10 -9 10 -20 0 -11 5 -20 10 -20 6 0 10 -9 10 -20 0
-11 5 -20 10 -20 6 0 10 -9 10 -20 0 -11 5 -20 10 -20 6 0 10 -9 10 -20 0 -11
3 -20 8 -20 8 0 32 -49 32 -67 0 -7 4 -13 8 -13 4 0 18 -19 30 -43 13 -23 36
-64 51 -92 16 -27 30 -57 30 -66 1 -9 7 -19 15 -22 15 -6 46 -62 46 -83 0 -7
3 -14 8 -16 12 -5 52 -66 52 -80 0 -7 9 -19 20 -26 11 -7 20 -21 20 -31 0 -11
3 -21 8 -23 11 -5 52 -66 52 -78 0 -6 9 -21 20 -33 52 -58 80 -96 80 -108 0
-8 9 -20 20 -27 11 -7 20 -19 20 -28 0 -8 13 -27 30 -41 16 -13 30 -32 30 -41
0 -10 14 -28 30 -41 17 -13 30 -29 30 -36 0 -7 22 -35 50 -62 27 -26 50 -53
50 -60 0 -6 27 -38 60 -71 33 -32 60 -63 60 -68 0 -13 270 -284 283 -284 6 0
37 -27 69 -60 33 -33 65 -60 73 -60 7 0 29 -18 49 -40 20 -22 43 -40 51 -40 8
0 20 -9 27 -20 7 -11 20 -20 30 -20 9 0 28 -14 41 -30 14 -17 33 -30 41 -30 9
0 21 -9 28 -20 7 -11 18 -20 24 -20 20 0 75 -32 81 -46 3 -8 14 -14 24 -14 10
0 19 -4 19 -10 0 -5 8 -10 19 -10 10 0 24 -6 30 -13 6 -8 29 -22 51 -32 22
-10 40 -22 40 -27 0 -4 7 -8 15 -8 22 0 192 -78 213 -97 7 -7 19 -10 27 -6 9
3 21 1 28 -5 19 -15 190 -74 213 -73 12 0 27 -6 34 -14 6 -7 17 -12 25 -9 7 3
27 -1 43 -10 16 -8 32 -13 35 -9 4 3 21 0 39 -8 18 -7 43 -12 55 -11 12 2 32
-2 45 -9 13 -7 36 -12 51 -11 15 1 38 -3 50 -9 12 -7 47 -11 79 -10 32 1 67
-3 78 -9 11 -6 78 -12 148 -14 70 -1 152 -5 182 -8 30 -3 183 -6 340 -7 176 0
298 -5 320 -12 19 -6 58 -10 87 -9 29 0 71 -4 95 -11 24 -7 62 -11 85 -10 23
1 52 -3 65 -10 12 -7 48 -11 80 -10 32 1 68 -3 80 -10 13 -7 46 -11 75 -10 29
1 71 -3 94 -9 23 -6 87 -13 143 -14 55 -2 121 -5 146 -9 58 -7 212 -7 270 0
25 4 89 7 142 9 53 1 106 8 118 14 11 6 42 10 68 9 26 -1 57 3 70 10 12 6 39
11 60 10 20 -2 47 3 60 10 13 7 33 11 45 9 12 -1 37 4 54 11 18 7 42 11 53 8
10 -3 25 2 31 10 7 8 24 13 38 11 15 -1 41 4 59 11 18 8 35 11 39 8 3 -4 19 1
35 9 16 8 35 13 41 11 7 -2 25 2 40 10 16 8 35 12 42 9 8 -3 19 2 26 10 7 9
21 13 30 11 10 -3 23 1 30 9 6 7 21 13 33 13 24 -1 254 78 273 93 7 6 19 8 28
5 8 -4 20 0 27 7 7 7 34 19 61 26 26 8 47 18 47 22 0 4 9 8 20 8 11 0 20 3 20
8 0 4 15 13 33 20 40 16 128 60 226 112 41 22 79 40 85 40 6 0 17 9 24 20 7
11 21 20 31 20 11 0 21 3 23 8 5 12 66 52 80 52 7 0 19 9 26 20 7 11 19 20 28
20 8 0 27 14 41 30 13 17 31 30 39 30 8 0 30 18 50 40 20 22 42 40 50 40 7 0
35 22 61 50 26 27 52 50 58 50 15 0 265 250 265 265 0 7 23 33 50 59 28 26 50
52 50 58 0 6 17 30 38 54 20 23 51 61 67 84 17 22 40 52 53 65 12 13 22 31 22
39 0 9 9 21 20 28 11 7 20 21 20 30 0 10 9 23 20 30 11 7 20 19 20 26 0 14 40
75 53 80 4 2 7 9 7 16 0 21 31 77 46 83 8 3 14 14 14 24 0 10 5 19 10 19 6 0
10 6 10 13 0 15 162 341 172 345 5 2 8 10 8 18 0 7 9 33 19 56 49 108 61 139
61 152 0 8 4 17 8 20 5 3 19 38 32 78 14 40 30 79 37 86 7 7 9 20 6 28 -3 9
-2 19 3 23 12 8 76 190 75 215 0 10 6 25 14 32 7 8 11 22 8 32 -2 10 2 24 11
31 8 7 13 18 10 26 -3 7 1 26 9 42 7 15 12 35 10 44 -2 9 3 21 11 28 8 7 13
18 10 26 -3 7 1 26 9 42 8 15 12 33 10 40 -2 6 2 24 10 40 8 15 12 33 10 40
-2 6 2 24 10 40 8 15 12 33 10 40 -2 6 3 25 11 41 8 16 13 32 9 35 -3 4 0 21
8 39 7 18 12 43 11 55 -2 12 4 35 12 51 8 16 13 32 9 35 -3 4 0 21 8 39 7 18
12 43 11 55 -2 12 2 32 9 45 7 13 12 35 11 51 -1 15 4 40 11 55 7 15 12 35 10
44 -2 9 1 36 8 60 7 24 11 51 10 60 -1 9 3 36 10 60 7 24 11 51 10 60 -1 9 3
36 10 60 7 24 11 57 10 75 -1 17 3 42 10 55 7 13 11 44 10 70 -1 26 4 58 10
70 7 13 11 42 10 65 -1 24 3 62 10 85 7 24 11 59 10 79 -1 20 3 56 10 80 6 24
11 65 10 90 -1 26 3 66 10 90 6 24 11 69 10 100 -1 32 3 76 9 100 7 23 13 79
14 123 2 45 6 97 9 116 3 19 8 78 10 130 2 52 7 111 10 130 3 19 8 91 10 160
2 69 6 145 9 170 3 25 8 115 10 200 3 85 7 175 10 200 4 25 7 120 7 212 0 101
5 176 11 188 6 11 12 82 14 158 1 75 5 153 9 172 3 19 8 73 10 120 2 47 7 110
10 140 3 30 6 78 6 106 0 31 6 55 14 62 8 7 12 23 9 37 -2 14 2 32 9 41 7 9
12 29 11 44 -2 15 4 32 12 39 9 7 13 18 10 23 -6 10 35 100 49 106 4 2 7 12 7
23 0 10 5 19 10 19 6 0 10 7 10 16 0 9 14 29 30 44 17 15 30 34 30 42 0 18
106 118 125 118 8 0 15 5 15 10 0 6 9 10 20 10 11 0 20 5 20 10 0 6 9 10 20
10 11 0 20 5 20 10 0 6 9 10 19 10 11 0 21 3 23 8 5 12 98 56 105 49 3 -4 14
0 24 9 10 9 24 14 31 11 7 -2 25 2 41 10 15 7 33 13 40 12 6 -2 30 3 52 9 69
19 99 25 146 27 26 2 56 8 68 15 12 6 52 10 89 9 37 -1 78 3 90 10 14 8 69 12
150 11 70 -1 143 4 162 10 19 6 91 10 160 10 69 -1 141 4 160 10 19 6 96 10
170 10 74 -1 151 4 170 10 19 6 87 11 150 11 63 0 131 3 150 6 19 4 90 8 157
9 66 2 140 8 162 14 23 6 96 10 164 10 67 -1 138 4 157 10 19 6 87 10 150 10
63 -1 131 4 150 10 19 6 87 11 150 11 63 0 131 3 150 6 19 4 85 8 146 9 62 1
130 8 153 14 23 6 97 10 165 9 77 -1 132 3 145 10 13 7 67 12 139 11 64 -1
133 4 152 10 19 6 87 10 150 10 63 -1 131 4 150 10 19 6 82 11 140 11 58 0
121 2 140 6 19 3 87 8 150 10 63 2 131 7 150 10 19 4 82 8 140 10 58 2 121 7
140 10 19 4 85 8 146 9 62 1 130 8 153 14 23 6 88 11 144 11 56 0 118 2 137 6
19 3 82 8 140 10 58 2 121 7 140 10 19 4 82 8 140 10 58 2 121 7 140 10 19 4
85 8 146 9 62 1 130 8 153 14 23 6 88 11 144 11 56 0 118 3 137 6 19 4 105 8
190 10 85 3 169 6 185 9 17 2 47 7 68 10 26 4 43 2 55 -8 19 -16 21 -16 81 1
34 10 46 10 51 0 5 -8 37 -11 99 -10 55 1 99 -3 113 -10 13 -7 46 -11 74 -10
34 1 55 -3 63 -13 6 -7 20 -12 30 -9 9 2 23 -2 30 -11 7 -8 19 -12 26 -9 8 3
21 -2 30 -10 8 -8 24 -13 35 -10 14 4 20 0 20 -10 0 -10 6 -13 20 -10 14 4 20
0 20 -11 0 -9 6 -13 15 -10 9 4 30 -10 55 -35 23 -23 47 -41 55 -41 8 0 15 -6
15 -14 0 -8 17 -32 38 -53 41 -42 62 -75 62 -97 0 -8 3 -16 8 -18 12 -5 56
-98 49 -105 -4 -3 -1 -13 6 -22 17 -21 40 -91 33 -98 -3 -4 1 -14 10 -24 9
-10 14 -24 11 -31 -2 -7 2 -26 10 -42 8 -16 13 -39 10 -52 -2 -13 2 -29 10
-36 9 -7 13 -26 12 -49 -2 -20 3 -44 9 -52 7 -8 12 -32 11 -54 -2 -21 3 -48
10 -61 6 -12 11 -39 10 -60 -2 -20 3 -47 10 -60 7 -13 11 -38 10 -55 -1 -18 3
-52 10 -75 7 -24 11 -56 10 -70 -1 -15 3 -46 10 -69 6 -24 11 -57 10 -75 -2
-18 3 -43 10 -56 6 -12 11 -39 11 -60 -1 -20 2 -48 6 -62 4 -14 8 -46 10 -71
1 -26 7 -56 13 -68 7 -12 11 -43 10 -69 -1 -26 3 -57 10 -70 6 -12 11 -39 10
-60 -2 -20 3 -47 10 -60 6 -12 11 -39 10 -60 -2 -20 3 -47 10 -60 6 -12 11
-39 10 -60 -2 -20 3 -47 9 -59 7 -12 11 -35 10 -50 -1 -15 4 -38 11 -51 6 -12
11 -39 10 -60 -2 -20 3 -47 9 -59 7 -12 11 -35 10 -50 -1 -15 4 -38 10 -50 7
-12 11 -35 10 -50 -1 -15 4 -38 10 -50 7 -12 11 -35 10 -50 -1 -15 4 -38 11
-51 7 -13 11 -33 9 -45 -1 -12 4 -37 11 -55 8 -18 11 -35 8 -39 -4 -3 1 -19 9
-35 8 -16 14 -39 12 -51 -1 -12 4 -37 11 -55 8 -18 11 -35 8 -39 -4 -3 1 -19
9 -35 8 -16 13 -35 11 -41 -2 -7 2 -25 10 -40 8 -16 12 -34 10 -40 -2 -7 2
-25 10 -40 8 -16 13 -39 11 -51 -1 -13 3 -30 11 -39 7 -9 11 -22 8 -29 -2 -7
2 -26 10 -41 8 -16 12 -34 10 -40 -2 -7 2 -25 10 -40 8 -16 12 -34 10 -40 -2
-7 2 -25 10 -40 8 -16 12 -35 9 -42 -3 -8 2 -19 9 -25 8 -7 14 -22 14 -34 -1
-11 8 -45 19 -74 11 -29 21 -61 21 -70 0 -9 23 -84 51 -166 28 -81 49 -151 46
-154 -3 -3 0 -12 7 -21 7 -9 29 -63 47 -121 19 -58 39 -108 44 -111 5 -4 6
-14 3 -22 -3 -9 0 -20 7 -26 7 -6 18 -33 26 -61 7 -27 16 -50 20 -50 4 0 13
-23 20 -50 7 -28 17 -50 22 -50 4 0 8 -7 8 -16 0 -8 13 -43 29 -77 16 -34 35
-80 43 -102 7 -22 15 -42 18 -45 5 -5 72 -140 99 -200 6 -14 15 -32 20 -40 5
-8 14 -26 20 -40 6 -14 25 -47 40 -75 16 -27 30 -58 30 -67 1 -10 6 -18 11
-18 6 0 10 -9 10 -19 0 -11 3 -21 8 -23 13 -6 52 -67 52 -82 0 -8 3 -16 8 -18
12 -5 52 -66 52 -80 0 -7 9 -19 20 -26 11 -7 20 -21 20 -31 0 -11 3 -21 8 -23
11 -5 52 -66 52 -78 0 -6 9 -21 20 -33 49 -55 80 -96 80 -106 0 -6 13 -23 28
-38 16 -16 33 -35 38 -44 13 -23 68 -89 142 -170 34 -37 62 -72 62 -77 0 -13
162 -172 175 -172 6 0 47 -36 89 -80 43 -44 84 -80 91 -80 7 0 25 -13 38 -30
14 -16 32 -30 40 -30 9 0 27 -13 40 -30 14 -16 33 -30 41 -30 9 0 21 -9 28
-20 7 -11 21 -20 30 -20 10 0 23 -9 30 -20 7 -11 21 -20 30 -20 10 0 23 -9 30
-20 7 -11 20 -20 28 -21 8 0 29 -9 45 -20 17 -10 40 -24 53 -30 12 -7 22 -16
22 -21 0 -4 9 -8 20 -8 11 0 20 -4 20 -10 0 -5 6 -10 14 -10 17 0 100 -42 104
-52 2 -5 12 -8 23 -8 10 0 19 -3 19 -8 0 -4 15 -12 33 -18 55 -20 102 -39 107
-44 3 -3 25 -12 50 -20 25 -8 51 -20 57 -26 7 -7 21 -10 31 -7 10 2 24 -2 31
-11 7 -8 18 -13 24 -10 7 2 37 -5 67 -17 30 -12 65 -21 76 -20 12 0 27 -5 33
-13 6 -7 22 -11 35 -9 13 3 37 -2 53 -11 17 -8 33 -13 36 -9 4 3 21 0 39 -8
18 -7 43 -12 55 -11 12 2 32 -2 45 -9 13 -7 44 -11 70 -10 26 1 58 -3 70 -10
13 -7 46 -11 75 -10 29 1 71 -3 93 -9 49 -13 186 -16 923 -18 12 0 101 -2 197
-4 297 -7 372 -7 450 -1 41 4 132 8 202 9 70 2 137 8 148 14 11 6 42 10 68 9
26 -1 57 3 70 10 12 6 39 11 60 10 20 -2 47 3 60 10 13 7 33 11 45 9 12 -1 37
4 55 11 18 8 35 11 39 8 3 -4 18 0 33 8 15 8 36 14 46 14 23 -1 254 79 271 93
7 6 19 8 28 5 8 -4 21 0 29 8 8 8 22 15 30 15 9 0 16 5 16 10 0 6 7 10 15 10
9 0 35 9 57 20 23 11 48 20 55 20 7 0 13 5 13 10 0 6 9 10 19 10 11 0 21 3 23
8 4 9 169 92 185 92 6 0 13 3 15 8 4 10 87 52 103 52 7 0 15 6 18 14 6 14 61
46 81 46 6 0 17 9 24 20 7 11 20 20 30 20 9 0 23 9 30 20 7 11 20 20 30 20 9
0 23 9 30 20 7 11 20 20 30 20 9 0 23 9 30 20 7 11 19 20 26 20 8 0 32 18 54
40 21 22 44 40 51 40 7 0 24 14 38 30 13 17 31 30 39 30 15 0 444 427 444 442
0 6 23 32 50 59 28 27 50 55 50 63 0 7 18 29 40 49 22 19 40 42 40 51 0 9 9
21 20 28 11 7 20 21 20 30 0 10 9 23 20 30 11 7 20 19 20 27 0 8 14 27 30 43
17 15 30 32 30 37 0 17 33 73 46 78 8 3 14 14 14 24 0 10 9 24 20 31 11 7 20
21 20 30 0 10 5 18 10 18 6 0 10 9 10 20 0 11 9 25 20 32 11 7 20 18 20 23 0
17 24 65 33 65 4 0 7 7 7 15 0 16 39 77 53 83 4 2 7 9 7 16 0 7 30 73 68 147
37 74 74 150 81 169 7 19 31 72 52 117 22 44 39 85 39 90 0 5 9 28 20 51 11
22 20 46 20 52 0 12 20 49 38 68 7 7 9 18 6 23 -3 6 4 30 15 54 12 25 21 50
21 56 0 6 6 17 14 25 8 7 12 22 9 32 -2 10 2 24 10 31 8 6 13 20 10 30 -2 9 2
23 11 30 8 7 12 19 9 27 -3 8 2 23 11 33 9 10 13 20 10 24 -4 3 4 28 16 54 13
26 23 58 22 69 -1 12 5 27 12 33 8 7 12 20 9 30 -2 9 2 23 10 30 8 6 13 20 10
30 -2 9 2 23 11 30 8 7 13 18 10 26 -3 7 1 26 9 42 7 15 12 35 10 44 -2 9 3
21 11 28 8 7 12 19 9 28 -3 8 0 19 8 23 8 5 12 23 11 43 -1 20 4 39 12 46 8 7
13 18 10 26 -3 7 1 26 9 42 8 15 12 34 10 41 -3 7 1 20 8 29 8 9 12 27 11 40
-2 13 2 31 9 40 8 8 12 28 11 43 -2 14 3 32 11 38 8 7 12 23 9 37 -2 14 2 32
9 41 7 9 12 29 11 44 -2 14 3 32 11 39 8 6 13 21 10 31 -3 11 1 35 8 52 7 18
12 44 11 59 -2 14 3 31 11 38 8 6 13 21 10 31 -3 11 1 35 8 53 7 17 12 42 11
54 -2 12 2 32 9 45 7 13 12 36 11 52 -2 15 3 35 10 43 7 9 11 30 9 48 -1 19 3
44 10 57 7 13 12 36 11 51 -1 15 3 38 10 50 6 12 10 40 9 61 -1 23 3 42 10 47
8 4 12 24 11 48 -2 23 3 51 9 63 7 13 12 40 10 60 -1 21 4 48 10 60 7 13 12
40 10 60 -1 21 3 47 10 59 6 12 12 42 13 68 2 25 6 57 10 71 4 14 7 42 6 62 0
21 5 48 11 60 7 13 11 44 10 70 -1 26 4 58 10 70 7 13 11 42 10 65 -1 24 3 62
10 85 7 24 11 62 10 85 -1 23 3 52 10 65 7 12 11 46 10 75 -1 29 3 71 10 95 6
24 11 64 10 89 -1 26 3 66 10 90 6 24 11 65 10 90 -1 26 3 66 10 90 6 24 11
74 10 111 -1 36 3 86 10 110 6 23 11 73 10 110 -1 36 3 85 9 109 6 23 13 83
14 133 2 50 6 107 9 126 4 19 6 78 6 130 1 52 5 111 11 130 6 19 11 90 10 157
0 68 4 141 10 163 6 23 12 105 14 183 1 78 5 167 8 197 3 30 7 143 10 250 2
107 7 229 10 270 3 41 5 236 6 433 1 224 5 365 12 377 11 21 13 1855 2 1920
-3 19 -7 103 -8 187 -2 84 -8 170 -14 193 -6 22 -10 82 -10 133 1 51 -4 108
-10 127 -6 19 -10 67 -9 105 1 39 -4 90 -10 114 -7 24 -11 64 -10 90 1 25 -4
65 -10 89 -7 24 -11 66 -10 95 1 29 -3 62 -10 75 -7 12 -11 48 -10 80 1 32 -3
68 -10 80 -7 12 -11 44 -10 70 1 26 -3 57 -10 70 -6 12 -11 44 -10 70 1 26 -3
57 -10 70 -6 12 -11 39 -10 60 2 20 -3 47 -10 60 -6 12 -11 39 -10 60 2 20 -3
47 -10 60 -6 12 -11 39 -10 60 2 20 -3 47 -9 59 -7 12 -11 35 -10 50 1 15 -4
38 -10 50 -7 12 -11 35 -10 50 1 15 -4 38 -10 50 -7 12 -11 35 -10 50 1 15 -4
38 -10 50 -7 12 -11 35 -10 50 1 15 -4 38 -11 51 -7 13 -11 33 -9 45 1 12 -4
37 -11 55 -8 18 -11 35 -8 39 4 3 -1 19 -9 36 -9 16 -14 40 -11 53 2 13 -2 29
-10 36 -8 6 -13 23 -11 37 1 15 -4 41 -11 59 -8 18 -11 35 -8 39 4 3 -1 19 -9
35 -9 16 -13 36 -10 43 3 8 -2 19 -10 26 -8 7 -14 19 -12 28 1 9 -4 31 -11 49
-8 18 -11 35 -8 39 4 3 -1 19 -9 35 -9 16 -13 36 -10 43 3 8 -2 19 -10 26 -8
7 -13 19 -11 28 2 9 -3 29 -10 44 -8 16 -12 35 -9 42 3 8 -2 19 -9 25 -8 7
-14 22 -14 34 0 11 -13 59 -30 106 -17 47 -29 90 -27 97 3 6 -2 17 -10 24 -8
7 -13 20 -12 29 2 9 -2 23 -8 31 -5 8 -21 48 -34 89 -13 41 -32 94 -43 117
-10 23 -16 46 -13 51 3 6 -1 15 -9 22 -8 7 -15 19 -15 26 0 8 -9 33 -19 57
-11 23 -25 60 -33 82 -7 22 -15 42 -18 45 -3 3 -12 25 -20 50 -8 25 -17 47
-20 50 -11 11 -27 47 -41 93 -7 26 -17 47 -21 47 -4 0 -8 9 -8 20 0 11 -4 20
-10 20 -5 0 -10 9 -10 19 0 11 -3 21 -8 23 -10 4 -172 330 -172 346 0 6 -4 12
-10 12 -5 0 -10 9 -10 19 0 11 -3 21 -7 23 -14 6 -53 67 -53 82 0 8 -3 16 -7
18 -10 4 -43 53 -62 91 -8 15 -18 27 -23 27 -4 0 -8 9 -8 20 0 11 -4 20 -10
20 -5 0 -10 8 -10 18 0 9 -9 23 -20 30 -11 7 -20 20 -20 30 0 9 -9 23 -20 30
-11 7 -20 19 -20 27 0 8 -13 28 -30 43 -16 16 -30 37 -30 46 0 9 -4 16 -10 16
-5 0 -10 6 -10 14 0 8 -18 32 -40 54 -22 21 -40 44 -40 50 0 7 -18 28 -40 48
-22 20 -40 42 -40 50 0 7 -27 39 -60 71 -33 31 -60 62 -60 68 0 14 -290 305
-304 305 -7 0 -38 27 -69 60 -32 33 -64 60 -71 60 -8 0 -24 13 -37 30 -13 16
-31 30 -40 30 -9 0 -27 13 -40 30 -13 16 -31 30 -40 30 -9 0 -22 7 -30 16 -7
8 -38 32 -68 52 -31 20 -57 40 -59 44 -2 5 -12 8 -23 8 -10 0 -24 9 -31 20 -7
11 -21 20 -30 20 -10 0 -18 5 -18 10 0 6 -8 10 -19 10 -10 0 -24 6 -30 13 -6
8 -29 22 -51 32 -22 10 -40 22 -40 27 0 4 -9 8 -20 8 -11 0 -20 5 -20 10 0 6
-9 10 -20 10 -11 0 -20 4 -20 8 0 4 -21 14 -47 22 -52 15 -120 48 -141 68 -8
7 -18 9 -24 6 -10 -7 -54 12 -76 33 -7 7 -19 10 -28 6 -8 -3 -23 2 -33 11 -10
9 -20 13 -24 10 -3 -4 -28 4 -54 16 -26 13 -58 23 -69 22 -12 -1 -27 5 -34 13
-6 7 -17 12 -25 9 -7 -3 -26 1 -42 9 -15 8 -33 12 -40 10 -6 -2 -24 2 -40 10
-15 8 -33 12 -40 10 -6 -2 -25 3 -41 11 -16 8 -32 13 -35 9 -4 -3 -21 0 -39 8
-18 7 -41 12 -50 11 -9 -2 -36 2 -60 9 -24 7 -51 11 -60 10 -9 -1 -36 3 -60
10 -24 6 -70 12 -103 14 -33 1 -76 5 -95 8 -42 7 -610 14 -616 8z m781 -440
c90 -13 179 -28 230 -40 22 -5 56 -12 75 -16 19 -4 46 -10 60 -15 14 -4 59
-18 100 -30 41 -12 84 -26 95 -30 11 -5 70 -27 130 -51 111 -43 315 -143 366
-179 15 -11 30 -20 33 -20 17 0 248 -163 351 -248 138 -113 316 -285 415 -401
51 -59 73 -88 193 -241 46 -59 234 -337 267 -395 11 -19 30 -52 41 -72 12 -21
29 -49 39 -63 20 -29 172 -325 212 -415 15 -33 38 -85 51 -115 14 -30 48 -113
77 -185 28 -71 58 -143 65 -160 7 -16 23 -61 36 -100 13 -38 26 -74 31 -79 4
-6 8 -18 8 -28 0 -10 4 -26 10 -36 8 -15 50 -140 79 -237 29 -95 73 -245 81
-275 5 -19 19 -69 30 -110 11 -41 24 -91 29 -110 5 -19 14 -53 20 -75 5 -22
19 -83 31 -135 11 -52 25 -111 30 -130 6 -19 28 -127 50 -240 22 -113 44 -227
50 -255 9 -48 16 -94 40 -255 7 -41 16 -95 20 -120 8 -42 17 -105 41 -295 6
-44 14 -109 19 -145 10 -68 15 -112 31 -270 5 -52 14 -135 19 -185 5 -49 14
-156 19 -238 6 -81 12 -151 15 -155 3 -5 6 -46 7 -93 1 -46 5 -115 10 -154 4
-38 10 -128 13 -200 3 -71 11 -258 18 -415 25 -553 14 -1813 -22 -2630 -17
-363 -54 -943 -80 -1217 -5 -62 -14 -161 -20 -220 -19 -216 -48 -472 -80 -723
-5 -41 -14 -111 -19 -155 -6 -44 -15 -114 -21 -155 -14 -91 -26 -172 -40 -265
-11 -77 -22 -146 -39 -245 -42 -236 -57 -318 -81 -440 -30 -149 -30 -151 -60
-285 -5 -25 -14 -65 -20 -90 -5 -25 -14 -64 -19 -87 -9 -40 -16 -69 -41 -168
-5 -22 -15 -59 -20 -82 -6 -24 -16 -61 -21 -83 -6 -22 -13 -55 -16 -73 -3 -18
-9 -35 -14 -38 -5 -3 -9 -15 -9 -26 0 -23 -17 -81 -31 -110 -5 -10 -9 -25 -9
-35 0 -15 -13 -61 -30 -108 -4 -11 -18 -54 -30 -95 -59 -195 -108 -336 -131
-382 -5 -10 -9 -25 -9 -33 0 -8 -4 -23 -9 -33 -5 -9 -19 -44 -31 -77 -25 -67
-31 -84 -54 -137 -9 -21 -23 -55 -32 -75 -9 -21 -20 -47 -24 -58 -46 -115
-179 -394 -254 -530 -18 -33 -44 -80 -57 -105 -13 -25 -46 -78 -72 -118 -26
-40 -47 -75 -47 -78 0 -5 -34 -55 -142 -209 -65 -94 -194 -251 -293 -358 -107
-117 -287 -283 -365 -337 -19 -13 -37 -27 -40 -30 -3 -3 -21 -17 -40 -30 -19
-14 -44 -32 -54 -42 -11 -10 -24 -18 -29 -18 -4 0 -28 -13 -52 -30 -24 -16
-46 -30 -50 -30 -4 0 -25 -13 -48 -28 -50 -34 -229 -121 -312 -151 -33 -13
-68 -27 -77 -32 -10 -5 -27 -9 -37 -9 -11 0 -22 -4 -25 -9 -3 -5 -18 -12 -33
-15 -48 -12 -96 -24 -178 -45 -80 -21 -100 -25 -330 -56 -135 -18 -463 -17
-592 3 -169 26 -327 73 -486 144 l-88 39 -62 -15 c-224 -55 -470 -86 -699 -86
-86 0 -192 5 -235 10 -43 6 -116 15 -163 21 -166 21 -325 63 -525 138 -54 21
-217 100 -274 133 -34 21 -65 38 -67 38 -15 0 -204 137 -303 220 -285 238
-584 610 -771 957 -24 43 -47 83 -51 89 -9 11 -169 332 -169 338 0 2 -18 43
-40 90 -22 47 -40 88 -40 91 0 3 -9 24 -19 48 -30 66 -115 290 -161 422 -22
66 -45 131 -50 145 -25 71 -116 375 -145 485 -36 135 -126 493 -140 559 -8 39
-24 114 -36 166 -22 99 -30 139 -48 230 -5 30 -19 105 -31 165 -25 132 -102
596 -119 715 -7 47 -16 112 -21 145 -12 81 -27 191 -40 300 -6 50 -15 122 -20
160 -11 81 -25 209 -39 345 -6 52 -13 118 -16 145 -8 69 -22 227 -34 370 -6
66 -12 147 -15 180 -3 33 -15 191 -27 350 -11 160 -22 291 -23 292 -1 1 -42
-2 -91 -7 -50 -6 -261 -24 -470 -41 -418 -33 -476 -38 -1045 -79 -80 -6 -205
-15 -277 -20 -352 -26 -418 -31 -548 -40 -77 -6 -201 -15 -275 -20 -222 -16
-416 -30 -567 -40 -79 -6 -207 -14 -285 -20 -79 -5 -208 -14 -288 -20 -80 -6
-209 -15 -287 -20 -79 -6 -209 -15 -290 -20 -82 -6 -213 -15 -293 -20 -253
-17 -431 -29 -590 -40 -160 -11 -328 -22 -605 -40 -88 -6 -225 -15 -305 -20
-368 -24 -652 -43 -932 -60 -87 -6 -230 -14 -318 -20 -612 -38 -1033 -63
-1325 -79 -99 -5 -211 -12 -250 -15 -38 -3 -230 -13 -425 -22 -195 -8 -416
-19 -490 -22 l-135 -7 -1 -835 c-1 -1044 -20 -1679 -74 -2380 -29 -378 -78
-828 -120 -1095 -6 -38 -15 -97 -20 -130 -5 -33 -14 -87 -20 -120 -6 -33 -15
-85 -20 -115 -17 -105 -86 -431 -121 -572 -22 -92 -28 -115 -37 -148 -6 -19
-20 -71 -32 -115 -22 -83 -143 -455 -159 -490 -5 -11 -17 -40 -26 -65 -76
-207 -261 -585 -354 -725 -15 -22 -32 -51 -39 -65 -16 -31 -141 -206 -200
-280 -157 -196 -338 -375 -502 -496 -36 -26 -81 -59 -100 -73 -105 -78 -359
-221 -470 -265 -25 -10 -58 -24 -75 -31 -70 -30 -202 -76 -305 -105 -25 -7
-56 -16 -70 -20 -14 -4 -50 -13 -80 -19 -30 -7 -73 -16 -95 -21 -427 -93
-1019 -105 -1465 -31 -84 14 -275 63 -373 95 -41 15 -83 26 -92 26 -9 0 -76
-20 -148 -44 -259 -88 -445 -119 -702 -119 -185 0 -258 7 -390 40 -33 8 -76
18 -95 23 -45 10 -130 38 -152 50 -10 6 -24 10 -32 10 -8 0 -31 9 -53 20 -21
10 -72 35 -113 54 -104 49 -179 92 -303 174 -92 62 -232 164 -247 181 -3 3
-34 31 -70 61 -132 110 -376 368 -513 540 -48 60 -164 220 -215 295 -34 50
-70 101 -81 115 -11 14 -21 29 -21 33 0 4 -18 35 -40 67 -22 32 -40 62 -40 65
0 4 -13 25 -28 48 -16 23 -46 74 -67 112 -21 39 -55 100 -76 136 -40 69 -199
389 -233 469 -11 25 -32 72 -47 105 -15 33 -44 101 -64 150 -21 50 -43 104
-50 120 -7 17 -27 67 -44 113 -17 45 -44 117 -61 160 -72 190 -182 526 -251
772 -17 58 -34 119 -39 135 -13 45 -109 423 -121 475 -16 69 -28 126 -38 173
-5 23 -18 85 -30 137 -20 90 -27 121 -51 258 -6 31 -15 80 -21 107 -17 88 -27
139 -59 335 -24 144 -32 198 -40 260 -5 36 -13 99 -19 140 -6 41 -15 109 -21
150 -5 41 -13 100 -16 130 -3 30 -14 80 -24 110 -16 47 -56 182 -89 295 -5 17
-14 53 -20 80 -7 28 -16 66 -21 85 -10 42 -25 107 -40 175 -22 108 -69 407
-85 545 -25 219 -23 210 -48 210 -12 0 -74 -5 -137 -10 -191 -16 -416 -31
-590 -40 -91 -4 -273 -14 -405 -21 -360 -20 -535 -17 -600 11 -11 5 -35 14
-53 22 -17 7 -32 16 -32 20 0 5 -6 8 -12 8 -7 0 -29 14 -48 30 -19 16 -38 30
-42 30 -9 0 -108 125 -130 164 -20 36 -66 131 -79 164 -5 12 -13 32 -18 45
-26 64 -59 188 -80 297 -34 176 -47 441 -33 658 16 238 22 295 33 307 5 5 9
22 9 39 0 16 4 43 9 60 5 17 15 51 21 76 31 116 88 245 128 288 6 7 17 22 22
32 22 41 109 86 205 105 17 3 50 11 75 16 269 60 846 138 1315 179 55 5 161
14 235 21 74 6 147 11 162 11 15 -1 30 3 33 8 3 5 12 63 20 127 32 262 70 474
125 688 40 160 41 167 51 435 11 284 23 521 38 705 6 72 13 162 16 200 15 204
54 617 75 800 5 44 14 125 20 180 6 55 15 129 20 165 5 36 14 103 20 150 10
81 15 114 40 283 22 142 49 304 71 422 11 55 24 127 30 160 19 107 31 168 58
285 5 25 15 70 21 100 14 64 24 107 40 170 6 25 15 61 20 80 27 113 100 383
119 440 5 14 14 45 21 70 17 59 108 339 119 365 5 11 23 58 41 105 18 47 36
95 41 108 5 12 13 32 18 45 13 32 36 85 63 147 14 30 33 75 44 99 111 259 332
627 508 846 101 126 309 336 423 427 52 41 214 145 278 178 39 20 80 42 93 48
49 26 62 32 72 32 6 0 29 8 53 19 49 22 86 35 142 49 22 6 58 15 80 21 100 26
122 31 158 31 21 0 47 5 57 10 26 14 462 14 575 -1 50 -6 137 -19 195 -30 137
-25 149 -24 189 10 69 59 258 162 406 221 11 4 36 15 55 23 31 14 84 29 245
71 28 8 88 19 135 26 47 6 112 16 146 21 83 12 530 12 684 -1 306 -26 543 -59
715 -100 310 -73 473 -129 720 -250 260 -126 433 -241 649 -431 373 -328 717
-816 964 -1369 11 -25 29 -65 40 -90 31 -68 121 -296 149 -375 13 -38 28 -79
33 -90 21 -47 133 -405 180 -575 5 -19 18 -66 29 -105 20 -71 82 -325 120
-490 42 -184 125 -618 161 -840 11 -71 25 -155 30 -185 5 -30 14 -91 20 -135
6 -44 15 -107 20 -140 12 -85 27 -195 40 -300 6 -49 15 -121 20 -160 5 -38 14
-115 20 -170 6 -55 15 -138 20 -185 15 -141 33 -325 45 -480 3 -36 8 -87 10
-115 3 -27 8 -84 10 -125 3 -41 10 -124 15 -185 5 -60 16 -243 25 -405 10
-162 19 -306 21 -319 5 -21 9 -23 44 -17 22 3 86 11 142 17 57 5 114 12 128
14 14 2 147 15 295 29 149 15 313 30 365 36 52 5 149 14 215 20 66 6 156 15
201 20 44 6 103 10 130 10 28 0 75 4 105 9 30 5 88 12 129 15 74 5 207 17 405
37 55 5 138 12 185 15 47 3 94 7 105 10 11 3 74 9 140 14 66 5 172 14 235 20
63 6 166 15 228 20 61 6 164 15 227 20 63 6 167 15 230 20 302 26 358 31 465
40 63 5 167 14 230 20 63 6 169 15 235 20 273 23 552 46 710 60 148 13 322 27
480 40 127 10 277 23 728 60 67 6 178 15 247 20 69 5 181 14 250 20 69 6 181
15 250 20 218 17 371 29 510 40 197 16 316 25 785 60 178 13 399 29 495 35 47
3 114 8 150 10 36 3 137 10 225 15 88 5 183 12 210 15 28 2 183 12 345 21 162
10 298 20 301 23 4 3 10 105 13 226 8 266 22 574 36 750 5 72 14 191 19 265 6
74 15 180 21 235 6 55 15 145 20 200 5 55 14 138 20 185 12 91 25 191 35 280
3 30 15 111 26 180 10 69 24 157 29 195 30 204 79 454 171 880 66 308 261 951
348 1150 5 11 19 47 32 80 12 33 35 88 51 123 15 34 28 65 28 67 0 14 174 371
218 448 12 20 31 53 42 72 48 84 61 105 121 200 141 223 316 441 500 620 147
143 237 217 379 312 106 71 324 193 345 193 6 0 15 4 21 8 5 5 36 19 69 31 33
13 69 27 80 31 104 44 340 96 545 121 118 14 597 8 767 -10 l121 -13 59 34
c236 138 664 251 988 261 109 3 442 -11 520 -22z"/>
<path d="M29881 29900 c-45 -11 -80 -38 -103 -80 -25 -46 -21 -138 9 -178 12
-17 79 -57 179 -107 285 -144 485 -310 702 -583 181 -227 394 -587 532 -897
12 -27 32 -72 45 -100 151 -337 343 -910 470 -1409 341 -1338 541 -2931 596
-4766 13 -426 7 -1480 -10 -1825 -34 -661 -80 -1165 -142 -1535 -35 -206 -36
-250 -6 -297 32 -50 65 -72 122 -80 95 -13 171 44 193 142 50 232 115 808 147
1320 29 454 36 671 42 1250 25 2442 -266 4842 -786 6489 -200 635 -455 1201
-729 1621 -312 479 -680 821 -1067 993 -100 44 -144 54 -194 42z"/>
<path d="M9140 29418 c-108 -15 -252 -44 -335 -68 -22 -6 -51 -14 -65 -17 -63
-15 -116 -70 -126 -130 -9 -63 3 -108 39 -147 52 -55 95 -61 213 -30 248 65
407 83 593 65 188 -18 308 -47 482 -116 560 -221 1136 -784 1528 -1493 102
-186 170 -347 262 -622 391 -1174 644 -2558 744 -4065 76 -1155 49 -2416 -70
-3229 -8 -55 -15 -124 -15 -153 0 -171 210 -234 310 -93 23 32 38 121 69 405
154 1397 109 3108 -125 4685 -146 986 -349 1857 -619 2655 -62 181 -110 295
-205 480 -167 327 -334 571 -628 918 -142 168 -407 405 -612 548 -245 172
-566 315 -821 369 -224 47 -457 61 -619 38z"/>
<path d="M28335 25594 c-204 -20 -383 -104 -539 -253 -79 -76 -181 -209 -234
-302 -43 -76 -47 -84 -52 -89 -6 -6 -49 -95 -60 -125 -4 -11 -17 -40 -28 -65
-11 -25 -25 -61 -32 -80 -7 -19 -16 -44 -20 -55 -5 -11 -19 -51 -31 -90 -12
-38 -25 -78 -30 -87 -5 -10 -9 -29 -9 -42 0 -14 -4 -27 -9 -30 -5 -3 -11 -20
-14 -38 -3 -18 -11 -53 -17 -78 -6 -25 -15 -64 -21 -87 -5 -24 -14 -64 -20
-90 -5 -27 -14 -73 -19 -103 -5 -30 -14 -82 -20 -115 -11 -64 -27 -172 -36
-242 l-6 -43 88 0 c49 0 105 3 125 6 l35 6 -4 56 c-5 81 -10 87 -11 15 -1 -49
-4 -63 -16 -63 -12 0 -15 13 -15 55 0 30 5 55 10 55 6 0 10 23 10 50 0 28 5
50 10 50 6 0 10 33 10 80 0 47 4 80 10 80 6 0 10 18 10 40 0 22 5 40 10 40 6
0 10 18 10 40 0 26 5 40 13 40 9 0 11 12 9 40 -3 25 0 40 7 40 6 0 11 14 11
30 0 18 5 30 13 30 9 0 12 10 9 30 -3 18 0 30 7 30 6 0 11 8 11 19 0 10 6 24
14 30 8 7 12 21 9 31 -4 13 0 20 9 20 10 0 13 8 10 30 -3 22 0 30 11 30 10 0
13 6 10 20 -4 14 0 20 10 20 10 0 13 6 10 20 -4 14 0 20 11 20 9 0 13 6 10 14
-3 8 4 25 15 37 12 13 21 29 21 36 0 7 6 13 14 13 9 0 12 7 9 20 -4 14 0 20
11 20 9 0 13 6 10 14 -3 8 8 29 25 47 17 17 31 36 31 41 0 5 52 61 115 125 76
76 120 113 130 109 8 -3 15 -1 15 5 0 18 30 41 45 35 9 -3 15 0 15 9 0 8 9 15
19 15 11 0 21 3 23 8 6 14 96 54 107 48 6 -4 11 0 11 10 0 12 7 15 30 12 21
-3 30 0 30 10 0 10 10 13 40 10 28 -2 40 0 40 9 0 10 22 13 80 13 47 0 80 4
80 10 0 6 25 10 55 10 30 0 55 -4 55 -10 0 -6 30 -10 70 -10 51 0 70 -4 70
-13 0 -9 11 -12 35 -9 21 2 42 -1 51 -9 9 -8 29 -12 45 -11 21 3 29 -1 29 -13
0 -9 5 -13 11 -10 10 7 74 -19 84 -34 3 -5 14 -7 25 -4 14 4 20 0 20 -11 0 -9
6 -13 14 -10 8 3 25 -4 37 -15 13 -12 29 -21 36 -21 7 0 13 -4 13 -10 0 -5 9
-10 20 -10 11 0 20 -4 20 -8 0 -5 12 -15 28 -23 15 -8 44 -31 65 -51 21 -21
42 -38 48 -38 12 0 179 -167 179 -179 0 -6 17 -27 38 -48 20 -21 43 -50 51
-65 8 -16 18 -28 23 -28 4 0 8 -6 8 -14 0 -7 14 -28 31 -45 17 -18 28 -39 25
-47 -3 -8 1 -14 9 -14 8 0 15 -9 15 -20 0 -11 5 -20 10 -20 6 0 10 -6 10 -13
0 -7 9 -23 21 -36 11 -12 18 -29 15 -37 -3 -8 1 -14 10 -14 11 0 15 -6 11 -20
-3 -14 0 -20 10 -20 10 0 14 -6 10 -20 -3 -11 -1 -22 3 -25 16 -10 62 -114 55
-124 -3 -6 1 -11 11 -11 12 0 15 -7 12 -30 -3 -21 0 -30 10 -30 10 0 13 -9 10
-30 -3 -21 0 -30 10 -30 10 0 13 -9 10 -30 -3 -21 0 -30 10 -30 10 0 13 -9 10
-30 -3 -18 1 -35 9 -41 7 -6 13 -24 13 -40 0 -16 5 -29 11 -29 6 0 9 -16 8
-40 -2 -22 2 -45 9 -52 7 -7 12 -25 12 -40 0 -15 5 -28 11 -28 6 0 9 -19 8
-49 -2 -29 3 -56 10 -65 8 -9 12 -39 10 -81 -1 -40 2 -70 9 -77 7 -7 12 -38
12 -70 0 -32 4 -58 10 -58 6 0 10 -40 10 -100 0 -60 4 -100 10 -100 6 0 10
-47 10 -120 0 -73 4 -120 10 -120 6 0 10 -60 10 -160 0 -100 4 -160 10 -160 7
0 10 -285 10 -835 0 -550 -3 -835 -10 -835 -6 0 -10 -37 -10 -90 0 -65 -3 -90
-12 -90 -10 0 -12 -18 -10 -65 3 -43 -1 -71 -9 -81 -7 -9 -12 -35 -10 -60 1
-26 -3 -52 -10 -61 -7 -8 -12 -33 -10 -54 2 -28 -1 -39 -11 -39 -10 0 -13 -10
-10 -35 3 -21 -1 -42 -9 -52 -8 -8 -12 -27 -11 -40 2 -13 -2 -31 -9 -40 -8 -8
-12 -28 -11 -44 3 -20 -1 -29 -11 -29 -9 0 -12 -9 -9 -30 3 -21 0 -30 -10 -30
-10 0 -13 -8 -10 -28 2 -17 -2 -33 -11 -40 -8 -7 -13 -21 -10 -31 2 -9 -2 -23
-10 -30 -8 -6 -13 -21 -10 -31 4 -14 0 -20 -11 -20 -10 0 -14 -5 -11 -11 7
-10 -19 -74 -34 -84 -5 -3 -7 -14 -4 -25 4 -14 0 -20 -10 -20 -10 0 -13 -6
-10 -20 4 -14 0 -20 -11 -20 -10 0 -14 -5 -11 -11 8 -13 -52 -137 -77 -160
-10 -9 -18 -22 -18 -28 0 -14 -20 -49 -42 -75 -10 -11 -18 -26 -18 -33 0 -7
-4 -13 -8 -13 -5 0 -15 -12 -23 -27 -8 -16 -35 -50 -61 -77 -27 -26 -48 -52
-48 -57 0 -13 -107 -119 -119 -119 -6 0 -27 -17 -48 -37 -21 -21 -50 -44 -65
-52 -16 -8 -28 -18 -28 -23 0 -4 -6 -8 -13 -8 -7 0 -23 -9 -36 -21 -12 -11
-29 -18 -37 -15 -8 3 -14 -1 -14 -10 0 -11 -6 -15 -20 -11 -14 3 -20 0 -20
-10 0 -10 -6 -14 -20 -10 -10 3 -25 -2 -31 -10 -7 -8 -21 -12 -31 -10 -12 3
-18 0 -18 -10 0 -11 -8 -14 -30 -11 -21 3 -30 0 -30 -10 0 -10 -10 -13 -40
-10 -28 2 -40 0 -40 -9 0 -10 -44 -13 -195 -13 -123 0 -195 4 -195 10 0 6 -18
10 -40 10 -27 0 -40 4 -40 13 0 9 -10 12 -30 9 -22 -3 -30 0 -30 11 0 10 -6
13 -20 10 -14 -4 -20 0 -20 10 0 10 -6 13 -20 10 -14 -4 -20 0 -20 10 0 10 -6
13 -20 10 -14 -4 -20 0 -20 11 0 9 -6 13 -14 10 -8 -3 -25 4 -37 15 -13 12
-29 21 -36 21 -7 0 -13 4 -13 8 0 5 -12 15 -27 23 -34 17 -233 212 -233 228 0
6 -13 24 -30 39 -16 16 -30 34 -30 39 0 6 -14 25 -31 42 -17 18 -28 39 -25 47
3 8 -1 14 -9 14 -8 0 -15 6 -15 13 0 7 -9 23 -21 36 -11 12 -18 29 -15 37 3 8
-1 14 -10 14 -11 0 -15 6 -11 20 3 14 0 20 -10 20 -10 0 -14 6 -10 20 3 14 0
20 -10 20 -10 0 -14 6 -10 20 3 14 0 20 -10 20 -10 0 -14 6 -10 20 3 14 0 20
-10 20 -10 0 -14 6 -10 20 3 10 -2 25 -10 31 -8 7 -12 21 -10 31 3 12 0 18
-10 18 -10 0 -14 6 -10 20 3 10 -2 25 -10 31 -8 7 -12 21 -10 31 3 12 0 18
-10 18 -11 0 -14 8 -11 30 3 20 0 30 -9 30 -8 0 -13 12 -13 30 0 17 -5 30 -11
30 -7 0 -10 15 -7 40 2 28 0 40 -9 40 -8 0 -13 12 -13 30 0 17 -4 30 -10 30
-5 0 -10 18 -10 40 0 22 -4 40 -10 40 -5 0 -10 23 -10 50 0 28 -4 50 -10 50
-6 0 -10 27 -10 60 0 33 -4 60 -10 60 -6 0 -10 37 -10 90 0 53 -4 90 -10 90
-6 0 -10 35 -10 85 l0 85 48 1 47 2 -55 7 c-30 4 -64 4 -75 0 -11 -4 -51 -8
-90 -9 -38 -1 -71 -4 -74 -7 -3 -3 0 -14 7 -24 7 -11 12 -46 12 -78 0 -32 4
-62 9 -67 5 -6 12 -32 15 -60 14 -122 18 -151 27 -160 5 -5 9 -28 9 -51 0 -24
5 -46 10 -49 6 -3 10 -26 10 -50 0 -24 4 -46 9 -49 5 -3 11 -23 14 -43 11 -71
18 -108 27 -128 9 -21 18 -58 27 -113 3 -18 9 -35 14 -38 5 -3 9 -16 9 -29 0
-13 5 -27 10 -30 6 -3 10 -19 10 -35 0 -16 5 -32 10 -35 6 -3 10 -17 10 -30 0
-13 5 -27 10 -30 6 -3 10 -17 10 -30 0 -13 5 -27 10 -30 6 -3 10 -15 10 -26 0
-10 4 -27 9 -37 5 -9 13 -28 18 -42 6 -14 15 -37 22 -52 6 -16 16 -40 22 -55
7 -16 15 -37 19 -48 18 -48 96 -204 122 -242 15 -23 28 -44 28 -48 0 -16 131
-200 194 -270 103 -116 168 -172 286 -242 140 -84 250 -114 441 -120 122 -4
163 -2 255 17 172 34 345 97 459 170 22 14 48 30 56 35 139 86 359 310 454
464 6 8 22 34 36 56 54 82 134 235 183 348 35 82 44 103 56 137 7 19 16 44 21
55 4 11 22 65 40 120 17 55 35 109 40 120 4 11 10 32 13 48 3 15 9 39 12 55 3
15 9 36 14 47 5 11 11 34 14 50 2 17 10 50 16 75 6 25 15 66 21 93 5 26 13 68
19 95 23 115 33 176 60 372 106 756 97 1943 -20 2640 -31 184 -47 262 -80 390
-5 19 -13 53 -19 75 -5 22 -15 58 -21 80 -6 22 -14 52 -17 68 -3 15 -9 30 -14
33 -5 3 -9 16 -9 29 0 13 -4 27 -10 30 -5 3 -10 16 -10 29 0 12 -4 26 -8 31
-4 6 -14 28 -21 50 -7 22 -17 51 -23 65 -6 14 -14 34 -18 45 -35 90 -147 321
-182 372 -15 23 -28 44 -28 48 0 7 -93 146 -134 200 -90 117 -208 240 -342
356 -36 31 -134 98 -195 133 -83 48 -231 116 -253 116 -8 0 -17 4 -20 9 -3 5
-18 11 -33 14 -16 3 -46 10 -68 16 -106 29 -203 42 -340 45 -82 2 -168 2 -190
0z"/>
<path d="M34229 23887 c-31 -16 -51 -36 -67 -67 -27 -51 -26 -59 7 -315 21
-160 25 -193 41 -380 37 -443 45 -693 44 -1350 -2 -737 -40 -1488 -109 -2145
-8 -74 -17 -162 -20 -195 -42 -412 -121 -964 -210 -1460 -159 -888 -430 -1846
-697 -2460 -301 -693 -641 -1182 -1041 -1499 -107 -85 -122 -103 -132 -158 -9
-50 2 -92 33 -129 26 -32 99 -70 124 -65 72 13 115 33 156 73 8 7 30 26 50 40
21 15 68 57 107 93 216 202 349 361 523 622 106 159 122 185 180 288 13 25 39
70 56 100 60 104 189 375 260 545 21 50 44 104 51 120 7 17 24 59 38 95 14 36
37 97 52 135 35 89 153 444 200 600 143 471 268 1001 364 1540 17 94 35 193
40 220 5 28 15 82 20 120 6 39 20 126 30 195 28 179 54 365 71 505 6 50 15
122 20 160 5 39 14 115 20 170 6 55 13 118 16 140 14 109 59 625 75 865 84
1271 73 2434 -31 3290 -24 191 -32 227 -62 265 -26 33 -91 64 -134 65 -17 0
-51 -10 -75 -23z"/>
<path d="M25675 22799 c-165 -5 -462 -16 -660 -25 -198 -9 -396 -18 -440 -20
-44 -2 -125 -6 -180 -9 -55 -3 -174 -10 -265 -15 -394 -23 -847 -51 -1255 -80
-82 -6 -208 -15 -280 -20 -71 -5 -193 -14 -270 -20 -77 -6 -196 -15 -265 -20
-380 -29 -1003 -79 -1465 -120 -60 -5 -166 -14 -235 -20 -69 -6 -170 -15 -225
-20 -55 -5 -152 -14 -215 -20 -202 -18 -322 -29 -435 -40 -60 -6 -153 -15
-205 -20 -52 -5 -144 -14 -205 -20 -60 -6 -155 -15 -210 -20 -55 -5 -143 -14
-195 -20 -52 -6 -120 -13 -150 -15 -82 -8 -235 -25 -320 -35 -41 -5 -163 -18
-270 -30 -107 -12 -212 -25 -232 -31 -152 -40 -173 -239 -34 -308 l50 -25 145
18 c80 9 178 21 216 26 466 61 1742 185 2975 289 2532 214 4564 320 5378 282
252 -12 265 -10 319 52 73 84 47 215 -53 262 -68 32 -413 40 -1019 24z"/>
<path d="M14788 21580 c-44 -24 -74 -63 -83 -110 -3 -19 3 -152 14 -295 155
-1981 108 -3942 -130 -5380 -92 -554 -231 -1129 -359 -1480 -12 -33 -32 -89
-45 -125 -74 -211 -216 -518 -320 -696 -273 -465 -578 -765 -961 -945 -140
-65 -178 -117 -159 -216 14 -74 85 -132 162 -133 69 0 327 134 493 257 487
359 881 969 1166 1808 178 520 327 1191 414 1855 6 47 15 117 20 155 5 39 14
115 20 170 6 55 15 136 20 180 132 1186 143 2865 30 4445 -30 415 -30 417 -54
453 -48 71 -152 97 -228 57z"/>
<path d="M6665 21483 c-38 -1 -155 -7 -260 -13 -104 -6 -230 -13 -280 -15 -49
-3 -117 -8 -150 -11 -33 -3 -123 -9 -200 -15 -461 -32 -937 -81 -1117 -117
-94 -18 -138 -71 -138 -163 0 -124 86 -178 236 -150 27 5 108 17 179 25 72 9
148 18 170 21 245 30 1058 86 1470 101 246 9 608 5 663 -7 154 -34 265 131
176 262 -26 38 -70 62 -144 79 -40 8 -420 11 -605 3z"/>
</g>
</svg>
